#tb 0: 1/25
#media_type 0: video
#codec_id 0: rawvideo
#dimensions 0: 352x288
#sar 0: 0/1
0,          0,          0,        1,   608256, 0xdd991406
0,          1,          1,        1,   608256, 0x4d1733ff
0,          2,          2,        1,   608256, 0x82dc0cf2
0,          3,          3,        1,   608256, 0xfce81711
0,          4,          4,        1,   608256, 0x384f2355
0,          5,          5,        1,   608256, 0x724b0097
0,          6,          6,        1,   608256, 0x042aa30b
0,          7,          7,        1,   608256, 0x08439621
0,          8,          8,        1,   608256, 0xc6e69e01
0,          9,          9,        1,   608256, 0xd79caf51
0,         10,         10,        1,   608256, 0x3aac4052
0,         11,         11,        1,   608256, 0x42911fc2
0,         12,         12,        1,   608256, 0x8df0c8f7
0,         13,         13,        1,   608256, 0xa1127d80
0,         14,         14,        1,   608256, 0x02ed02a3
0,         15,         15,        1,   608256, 0xf10057e1
0,         16,         16,        1,   608256, 0x78ef7f90
0,         17,         17,        1,   608256, 0x00c9b371
0,         18,         18,        1,   608256, 0xbbb36946
0,         19,         19,        1,   608256, 0x39c0f46f
0,         20,         20,        1,   608256, 0x39b40bea
0,         21,         21,        1,   608256, 0x43498467
0,         22,         22,        1,   608256, 0x9658bfa1
0,         23,         23,        1,   608256, 0xbe4f91e2
0,         24,         24,        1,   608256, 0x276b9395
0,         25,         25,        1,   608256, 0x089ed550
0,         26,         26,        1,   608256, 0x3ec0024d
0,         27,         27,        1,   608256, 0x3238d7fd
0,         28,         28,        1,   608256, 0x9e28897a
0,         29,         29,        1,   608256, 0xb18b8ad3
0,         30,         30,        1,   608256, 0x8d06eb6c
0,         31,         31,        1,   608256, 0x47ff4b23
0,         32,         32,        1,   608256, 0x7a79f601
0,         33,         33,        1,   608256, 0x96525ae0
0,         34,         34,        1,   608256, 0xfa51c70b
0,         35,         35,        1,   608256, 0x80cebdb3
0,         36,         36,        1,   608256, 0xfba91694
0,         37,         37,        1,   608256, 0xd28a9466
0,         38,         38,        1,   608256, 0x6ab0ad38
0,         39,         39,        1,   608256, 0xe4b410bc
0,         40,         40,        1,   608256, 0x78f8b4c3
0,         41,         41,        1,   608256, 0x2c51cc2b
0,         42,         42,        1,   608256, 0xbe9812f9
0,         43,         43,        1,   608256, 0xf0b6bada
0,         44,         44,        1,   608256, 0x457c5f74
0,         45,         45,        1,   608256, 0xd10ff6e2
0,         46,         46,        1,   608256, 0xc5bbc70c
0,         47,         47,        1,   608256, 0xccca93dc
0,         48,         48,        1,   608256, 0x7e36938a
0,         49,         49,        1,   608256, 0x87312f5c
